<?xml version="1.0" encoding="UTF-8" standalone="no"?>
<!-- Created with Inkscape (http://www.inkscape.org/) -->

<svg
   width="19.861378mm"
   height="31.925402mm"
   viewBox="0 0 19.861378 31.925402"
   version="1.1"
   id="svg1"
   inkscape:version="1.3-dev (77bc73e, 2022-05-18)"
   sodipodi:docname="latam.svg"
   xmlns:inkscape="http://www.inkscape.org/namespaces/inkscape"
   xmlns:sodipodi="http://sodipodi.sourceforge.net/DTD/sodipodi-0.dtd"
   xmlns="http://www.w3.org/2000/svg"
   xmlns:svg="http://www.w3.org/2000/svg">
  <sodipodi:namedview
     id="namedview1"
     pagecolor="#ffffff"
     bordercolor="#000000"
     borderopacity="0.25"
     inkscape:showpageshadow="2"
     inkscape:pageopacity="0.0"
     inkscape:pagecheckerboard="0"
     inkscape:deskcolor="#d1d1d1"
     inkscape:document-units="mm"
     showgrid="false"
     inkscape:zoom="1.3265451"
     inkscape:cx="-52.391737"
     inkscape:cy="50.507142"
     inkscape:window-width="1423"
     inkscape:window-height="456"
     inkscape:window-x="1851"
     inkscape:window-y="212"
     inkscape:window-maximized="0"
     inkscape:current-layer="layer5" />
  <defs
     id="defs1" />
  <g
     inkscape:label="Camada 1"
     inkscape:groupmode="layer"
     id="layer1"
     transform="translate(-33.797325,-6.4151955)">
    <g
       id="layer5"
       fill-rule="evenodd"
       transform="matrix(0.01032524,0,0,0.01032524,39.75501,25.869269)"
       style="stroke-width:25.625">
      <g
         id="g1">
        <g
           fill="#ed1651"
           id="g3"
           style="stroke-width:72.3833"
           transform="matrix(4.991914,0,0,4.991914,2303.3425,-4821.6281)">
          <path
             id="path27278"
             d="m -532.68,841.98 68.786,-19.648 c 0,0 -0.73658,-4.5943 -3.2031,-6.8493 -2.46652,-2.255 -6.9031,-3.6493 -6.9031,-3.6493 l -95.605,-34.728 c 0,0 -3.0352,-1.0205 -5.2527,0.2078 -2.2175,1.2283 -2.1388,4.4193 -2.1388,4.4193 v 44.459 c 0,0 -0.2385,4.2567 5.927,13.798 6.1656,9.5409 20.77,7.111 20.77,7.111 z"
             style="stroke-width:5.1333" />
          <path
             id="path27260"
             d="m -258.85,734.71 63.986,-35.848 c 0,0 0.96342,-6.1943 -1.5031,-8.4493 -2.46652,-2.255 -5.4031,-2.9493 -5.4031,-2.9493 l -276.34,-98.614 c 0,0 -3.0352,-1.0205 -5.2527,0.2078 -2.2175,1.2283 -2.1388,4.4193 -2.1388,4.4193 v 38.333 c 0,0 -0.0385,8.882 6.127,18.423 6.1656,9.5409 16.17,12.011 16.17,12.011 z"
             style="stroke-width:5.1333" />
          <path
             id="path27258"
             d="m -258.85,846.29 63.986,-33.148 c 0,0 1.3634,-8.3943 -1.1031,-10.649 -2.4665,-2.255 -5.8031,-3.4493 -5.8031,-3.4493 l -367.84,-133.61 c 0,0 -3.0352,-1.0205 -5.2527,0.2078 -2.2175,1.2283 -2.1388,4.4193 -2.1388,4.4193 v 38.333 c 0,0 -0.0385,8.882 6.127,18.423 6.1656,9.5409 16.17,12.011 16.17,12.011 z"
             style="stroke-width:5.1333" />
        </g>
        <g
           fill="#2a0088"
           id="g4"
           style="stroke-width:72.3833"
           transform="matrix(4.991914,0,0,4.991914,2303.3425,-4821.6281)">
          <path
             id="path27194"
             d="m -201.77,687.46 c 0,0 3.7354,0.56621 6.9031,3.6493 3.1677,3.08309 3.2031,6.8493 3.2031,6.8493 v 50.754 c 0,0 -0.15239,6.9342 -2.9966,13.17 -2.8442,6.2359 -7.0096,7.7111 -7.0096,7.7111 l -8.6667,3.1481 -276.16,100.31 c 0,0 -1.328,0.40995 -3.0557,0.40995 -1.7277,0 -3.0557,-0.40995 -3.0557,-0.40995 l -76.943,-27.949 c 0,0 -1.9088,-0.44406 -4.6171,-4.6869 -3.05,-4.76 -2.83,-14.21 -2.83,-14.21 0,0 0.47846,4.8448 3.217,7.1455 2.73854,2.3007 10.037,-0.22335 10.037,-0.22335 l 353.41,-128.37 c 0,0 14.033,-5.7246 14.033,-11.541 0,-4.0162 -5.4667,-5.7407 -5.4667,-5.7407 z"
             style="stroke-width:5.1333" />
          <path
             id="path27140"
             d="m -201.77,799.04 c 0,0 3.7354,0.56621 6.9031,3.6493 3.1677,3.08309 3.2031,6.8493 3.2031,6.8493 v 50.754 c 0,0 -0.15239,6.9342 -2.9966,13.17 -2.8442,6.2359 -7.0096,7.7111 -7.0096,7.7111 l -8.6667,3.1481 -276.16,100.31 v -68 l 276.16,-100.31 c 0,0 14.033,-5.7246 14.033,-11.541 0,-4.0162 -5.4667,-5.7407 -5.4667,-5.7407 z"
             style="stroke-width:5.1333" />
          <path
             id="path27142"
             d="m -338.86,977.68 c 2.6431,2.6431 2.6431,8.4596 2.6431,8.4596 v 37.953 c 0,0 -0.15239,6.9342 -2.9966,13.17 -2.8442,6.2359 -7.0096,7.711 -7.0096,7.711 l -8.6667,3.1482 -131.61,47.807 v -68 l 131.61,-47.807 c 0,0 13.387,-5.0845 16.03,-2.4414 z"
             style="stroke-width:5.1333" />
          <path
             id="path27168"
             d="m -423.76,1119.6 c 2.6431,2.6431 2.6431,8.4595 2.6431,8.4595 v 37.953 c 0,0 -0.15239,6.9342 -2.9966,13.17 -2.8442,6.2359 -7.0096,7.711 -7.0096,7.711 l -8.6667,3.1482 -46.71,17.807 v -68 l 46.71,-17.807 c 0,0 13.387,-5.0845 16.03,-2.4414 z"
             style="stroke-width:5.1333" />
        </g>
      </g>
    </g>
  </g>
</svg>
